:SAMPLES-PER-SECOND 30
:FULLY-SPECIFIED
:DEGREES
127
root  -10.2236 34.6368 -2.71244 -179.322 53.7908 -174.681
RightUpLeg  -31.3813 -27.1354 -4.51856
RightLeg  50.7059 -4.18211 -5.82392
RightFoot  -12.3798 0.0484229 14.624
RightToes  -5.8209e-011 0 -3.6325e-017
Spine  17.6392 4.63607 -11.0248
Spine1  20.0407 -2.93904 15.8224
HEad  -13.3684 42.3348 -9.1498
LeftShoulder1  0.613042 0.689294 -14.9191
LeftArm  12.3775 12.7787 -61.664
LeftForeArm  88.0637 -78.0775 -111.293
LeftHand  -1.48213 0.00456755 31.4911
RightShoulder  0.168595 -2.75094 16.4888
RightArm  -79.0431 -9.50943 47.2191
RightForeArm  18.3229 70.3541 32.4226
RightHand  -4.56627 8.39933 -37.4737
LeftUpLeg  -22.3418 -12.8448 3.22642
LeftLeg  58.8544 0.00511614 0.589856
LeftFoot  -32.0819 -0.435334 -3.43431
LeftToes  -3.91115e-011 -2.2622e-010 9.51032e-012
128
root  -10.3195 34.7044 -2.49229 179.675 51.6113 -175.342
RightUpLeg  -30.6759 -28.7814 -5.19035
RightLeg  50.5653 -4.33352 -5.99152
RightFoot  -11.8672 -0.0144001 14.3587
RightToes  -5.8209e-011 0 -3.6325e-017
Spine  18.287 5.88464 -6.21509
Spine1  20.8497 1.62457 9.55338
HEad  -14.2234 38.5686 -8.36553
LeftShoulder1  0.934848 -0.648883 -15.7234
LeftArm  15.7883 13.0557 -62.3808
LeftForeArm  74.4731 -78.7886 -97.6501
LeftHand  -1.31217 0.275155 29.4067
RightShoulder  0.390208 -1.82685 16.9293
RightArm  -76.4018 -4.3046 49.4447
RightForeArm  7.1045 63.6897 22.9533
RightHand  -4.96702 8.79275 -39.409
LeftUpLeg  -22.459 -13.212 3.17299
LeftLeg  58.3575 -0.706519 -0.67046
LeftFoot  -31.3073 -0.291278 -2.72549
LeftToes  -3.91115e-011 -2.2622e-010 9.51032e-012
129
root  -10.4218 34.897 -2.28033 178.243 50.843 -176.82
RightUpLeg  -30.3048 -29.1869 -6.07415
RightLeg  49.8472 -4.55368 -6.11663
RightFoot  -10.6394 -0.153069 13.286
RightToes  -5.8209e-011 0 -3.6325e-017
Spine  19.8294 6.31833 -2.11816
Spine1  20.1946 5.68659 2.26492
HEad  -13.5289 35.8507 -6.79458
LeftShoulder1  1.14551 -1.48345 -16.2251
LeftArm  16.6488 14.144 -61.3714
LeftForeArm  67.0893 -78.8993 -90.0338
LeftHand  -1.17108 0.502786 27.5884
RightShoulder  0.4333 -1.50336 15.0396
RightArm  -64.9349 3.42578 51.5862
RightForeArm  1.02705 58.7996 18.8235
RightHand  -4.68054 8.41245 -38.2266
LeftUpLeg  -22.0694 -12.6128 2.4631
LeftLeg  56.9153 -1.13686 -1.33896
LeftFoot  -30.0848 -0.203044 -2.32916
LeftToes  -3.91115e-011 -2.2622e-010 9.51032e-012
130
root  -10.5602 35.16 -2.05539 176.655 51.4593 -179.085
RightUpLeg  -30.7385 -27.567 -6.9923
RightLeg  48.7557 -4.74593 -6.11937
RightFoot  -8.79452 -0.329012 12.0603
RightToes  -5.8209e-011 0 -3.6325e-017
Spine  21.8316 5.77737 0.965406
Spine1  18.1805 8.76802 -6.13269
HEad  -12.4354 34.1292 -5.29609
LeftShoulder1  1.21762 -1.75896 -16.404
LeftArm  15.1919 15.8686 -59.0756
LeftForeArm  71.4568 -78.8498 -94.4398
LeftHand  -1.23647 0.258227 27.7054
RightShoulder  0.39711 -1.24868 10.579
RightArm  -47.2169 13.4603 54.2817
RightForeArm  -1.91505 57.6594 18.2062
RightHand  -4.19659 7.945 -35.6845
LeftUpLeg  -21.6865 -11.267 1.32068
LeftLeg  54.8044 -1.36421 -1.56852
LeftFoot  -28.6228 -0.187707 -2.37081
LeftToes  -3.91115e-011 -2.2622e-010 9.51032e-012
131
root  -10.7127 35.419 -1.80613 174.951 52.9121 177.914
RightUpLeg  -31.9521 -24.1668 -8.09613
RightLeg  47.6078 -4.62712 -5.74078
RightFoot  -6.56883 -0.533035 11.6441
RightToes  -5.8209e-011 0 -3.6325e-017
Spine  23.9485 4.58501 3.74684
Spine1  15.4824 11.1896 -15.8082
HEad  -11.4656 32.472 -4.01796
LeftShoulder1  1.24291 -1.896 -16.2754
LeftArm  13.0846 16.199 -56.0229
LeftForeArm  81.3203 -78.4471 -105.328
LeftHand  -1.29973 0.0757815 28.1248
RightShoulder  0.302245 -1.09823 4.67908
RightArm  -30.1208 24.5683 54.911
RightForeArm  0.00725171 61.4385 21.47
RightHand  -3.72532 7.36457 -33.2855
LeftUpLeg  -21.6591 -9.53559 -0.0828663
LeftLeg  52.4584 -1.42714 -1.5081
LeftFoot  -27.1845 -0.215225 -2.72206
LeftToes  -3.91115e-011 -2.2622e-010 9.51032e-012
132
root  -10.8073 35.6185 -1.51717 173.371 53.643 174.583
RightUpLeg  -33.4832 -20.9524 -9.60619
RightLeg  46.828 -4.20035 -5.10381
RightFoot  -4.80984 -0.719077 11.981
RightToes  -5.8209e-011 0 -3.6325e-017
Spine  26.0835 3.28595 6.07195
Spine1  12.7865 12.8966 -24.945
HEad  -10.5863 30.419 -2.75106
LeftShoulder1  1.33649 -2.35903 -16.037
LeftArm  11.4998 13.7905 -53.1562
LeftForeArm  88.4163 -77.8594 -113.243
LeftHand  -1.16135 0.445425 26.9947
RightShoulder  0.121175 -1.95217 -1.21589
RightArm  -21.982 34.2604 50.2715
RightForeArm  13.735 70.1083 33.329
RightHand  -3.18253 6.42029 -30.8243
LeftUpLeg  -22.2355 -8.17087 -1.51101
LeftLeg  50.3176 -1.54493 -1.52637
LeftFoot  -25.8443 -0.242536 -3.12532
LeftToes  -3.91115e-011 -2.2622e-010 9.51032e-012
133
root  -10.7827 35.7852 -1.1803 172.869 51.9163 172.258
RightUpLeg  -34.3798 -19.7388 -11.3283
RightLeg  46.3964 -3.49017 -4.23671
RightFoot  -4.37324 -0.806544 12.715
RightToes  -5.8209e-011 0 -3.6325e-017
Spine  27.9467 2.10015 6.95505
Spine1  10.785 13.0518 -30.123
HEad  -9.79526 28.5983 -1.41247
LeftShoulder1  1.50751 -3.16897 -15.8191
LeftArm  9.92714 10.1284 -51.7078
LeftForeArm  92.8744 -77.5617 -116.722
LeftHand  -0.954195 0.951635 24.8136
RightShoulder  -0.0184167 -4.12313 -5.82864
RightArm  -25.4697 40.1507 41.9231
RightForeArm  46.8166 77.9148 62.701
RightHand  -2.57773 5.35124 -27.6313
LeftUpLeg  -23.3134 -7.92127 -2.38103
LeftLeg  48.4306 -2.39382 -2.42903
LeftFoot  -24.433 -0.242653 -3.39117
LeftToes  -3.91115e-011 -2.2622e-010 9.51032e-012
134
root  -10.6163 35.9574 -0.824693 173.68 47.4662 171.88
RightUpLeg  -33.5835 -19.9368 -13.0934
RightLeg  46.1248 -2.27729 -2.85228
RightFoot  -5.11949 -0.821857 14.446
RightToes  -5.8209e-011 0 -3.6325e-017
Spine  28.993 0.951304 5.75933
Spine1  9.91179 11.1937 -29.7536
HEad  -9.45153 27.831 -0.151627
LeftShoulder1  1.66017 -3.93267 -15.5307
LeftArm  7.48657 7.71985 -52.1288
LeftForeArm  97.5806 -77.3226 -119.563
LeftHand  -0.902159 0.951744 23.493
RightShoulder  -0.0452646 -6.25667 -7.89224
RightArm  -32.2394 41.8752 36.5991
RightForeArm  76.6653 79.3219 91.1311
RightHand  -2.18445 4.65026 -25.1719
LeftUpLeg  -24.25 -8.81923 -2.2721
LeftLeg  46.7769 -4.55443 -4.73346
LeftFoot  -22.8385 -0.220848 -3.55507
LeftToes  -3.91115e-011 -2.2622e-010 9.51032e-012
135
root  -10.301 36.1118 -0.537845 174.705 42.1485 172.851
RightUpLeg  -31.1783 -19.4353 -14.6757
RightLeg  46.1782 -0.99357 -1.42496
RightFoot  -6.0665 -0.828945 16.9544
RightToes  -5.8209e-011 0 -3.6325e-017
Spine  28.9921 0.0707321 3.18448
Spine1  10.5547 8.42403 -25.5645
HEad  -9.98628 27.8502 0.661615
LeftShoulder1  1.73768 -4.37781 -15.2273
LeftArm  4.68872 6.6758 -53.4317
LeftForeArm  101.113 -76.9601 -122.55
LeftHand  -0.991553 0.598948 23.8938
RightShoulder  -0.066333 -6.59578 -7.06482
RightArm  -34.3978 40.3726 37.1234
RightForeArm  73.4377 79.176 89.1497
RightHand  -1.9613 4.07375 -23.9894
LeftUpLeg  -24.4487 -10.1581 -1.35245
LeftLeg  45.7048 -7.38321 -7.62107
LeftFoot  -21.3612 -0.200755 -3.74999
LeftToes  -3.91115e-011 -2.2622e-010 9.51032e-012
136
root  -9.86947 36.251 -0.3946 175.103 38.2664 173.964
RightUpLeg  -28.5108 -17.5141 -15.7161
RightLeg  46.7375 -1.29026 -1.79837
RightFoot  -6.22641 -0.847396 17.8754
RightToes  -5.8209e-011 0 -3.6325e-017
Spine  27.8742 -0.127951 0.810791
Spine1  12.6342 6.54813 -20.9898
HEad  -11.2436 27.5814 0.646767
LeftShoulder1  1.77251 -4.55061 -15.1846
LeftArm  3.19417 5.21305 -54.0187
LeftForeArm  100.411 -76.9365 -122.48
LeftHand  -1.06831 0.442225 24.9273
RightShoulder  -0.0711641 -5.14072 -4.39478
RightArm  -32.6966 36.081 39.9439
RightForeArm  58.942 78.8015 75.863
RightHand  -1.70687 3.40814 -22.506
LeftUpLeg  -23.7698 -11.2669 -0.263784
LeftLeg  45.0596 -9.42533 -9.56994
LeftFoot  -20.3652 -0.183895 -3.87471
LeftToes  -3.91115e-011 -2.2622e-010 9.51032e-012
137
root  -9.38583 36.4433 -0.380129 175.002 36.5339 174.496
RightUpLeg  -26.5138 -15.1978 -16.3274
RightLeg  47.5014 -4.06118 -5.06525
RightFoot  -5.24533 -0.883627 15.901
RightToes  -5.8209e-011 0 -3.6325e-017
Spine  26.0548 0.365283 -0.286151
Spine1  15.0328 6.1738 -17.8643
HEad  -12.5224 26.5203 -0.231743
LeftShoulder1  1.7754 -4.53492 -15.2721
LeftArm  3.74714 2.91432 -53.3814
LeftForeArm  96.2714 -77.4623 -118.336
LeftHand  -1.03541 0.628082 25.078
RightShoulder  0.00249905 -3.46897 -0.796934
RightArm  -29.6128 29.9284 42.0633
RightForeArm  51.3296 78.3167 67.9899
RightHand  -1.51867 3.04539 -20.9355
LeftUpLeg  -22.3649 -12.0998 0.458044
LeftLeg  43.8889 -10.1617 -9.91213
LeftFoot  -19.7897 -0.174142 -3.96229
LeftToes  -3.91115e-011 -2.2622e-010 9.51032e-012
